<svg width="600" height="760" viewBox="0 0 600 760" fill="none" xmlns="http://www.w3.org/2000/svg">
  <rect width="600" height="760" rx="48" fill="#F0EDE8"/>
  <rect x="168" y="150" width="264" height="442" rx="68" fill="url(#paint0_linear_17_2)"/>
  <rect x="221" y="77" width="158" height="108" rx="26" fill="#1A1A1A"/>
  <rect x="248" y="30" width="104" height="62" rx="18" fill="#C9A96E"/>
  <rect x="198" y="175" width="204" height="126" rx="36" fill="url(#paint1_linear_17_2)" fill-opacity="0.55"/>
  <rect x="204" y="332" width="192" height="182" rx="34" fill="#F9F4EA" fill-opacity="0.74"/>
  <path d="M242 174C247.523 174 252 178.477 252 184V301H232V184C232 178.477 236.477 174 242 174Z" fill="#FFF9EE" fill-opacity="0.58"/>
  <circle cx="482" cy="118" r="72" fill="#C9A96E" fill-opacity="0.16"/>
  <circle cx="482" cy="118" r="32" fill="#F7E9CE" fill-opacity="0.5"/>
  <defs>
    <linearGradient id="paint0_linear_17_2" x1="300" y1="150" x2="300" y2="592" gradientUnits="userSpaceOnUse">
      <stop stop-color="#2E271E"/>
      <stop offset="0.72" stop-color="#5B4530"/>
      <stop offset="1" stop-color="#C9A96E"/>
    </linearGradient>
    <linearGradient id="paint1_linear_17_2" x1="300" y1="175" x2="300" y2="301" gradientUnits="userSpaceOnUse">
      <stop stop-color="#FFF7E8"/>
      <stop offset="1" stop-color="#E5C48C" stop-opacity="0"/>
    </linearGradient>
  </defs>
</svg>
